<?xml version="1.0" standalone="no"?>
<!DOCTYPE svg PUBLIC "-//W3C//DTD SVG 20010904//EN"
 "http://www.w3.org/TR/2001/REC-SVG-20010904/DTD/svg10.dtd">
<svg version="1.0" xmlns="http://www.w3.org/2000/svg"
 width="500.000000pt" height="500.000000pt" viewBox="0 0 500.000000 500.000000"
 preserveAspectRatio="xMidYMid meet">
<metadata>
Created by potrace 1.14, written by Peter Selinger 2001-2017
</metadata>
<g transform="translate(0.000000,500.000000) scale(0.100000,-0.100000)"
fill="#000000" stroke="none">
<path d="M0 2500 l0 -2500 2500 0 2500 0 0 2500 0 2500 -2500 0 -2500 0 0
-2500z m2799 2075 c161 -25 344 -73 466 -122 63 -25 255 -120 310 -153 28 -16
60 -35 73 -41 12 -7 22 -16 22 -21 0 -4 4 -8 10 -8 12 0 134 -88 138 -101 2
-5 8 -9 13 -9 24 0 212 -189 302 -304 34 -44 70 -88 80 -98 9 -10 17 -20 17
-23 0 -6 40 -65 50 -75 3 -3 14 -23 25 -45 11 -22 23 -42 26 -45 12 -10 107
-217 132 -285 80 -226 108 -352 128 -568 20 -232 -5 -525 -64 -737 -22 -78
-61 -190 -78 -222 -5 -10 -9 -22 -9 -28 0 -12 -94 -203 -121 -245 -10 -16 -23
-39 -29 -50 -19 -39 -30 -54 -118 -170 -38 -49 -99 -121 -135 -160 -37 -38
-67 -73 -67 -77 0 -5 -4 -8 -9 -8 -5 0 -29 -19 -53 -42 -23 -22 -83 -72 -133
-110 -117 -88 -131 -99 -170 -118 -11 -6 -33 -19 -50 -29 -35 -23 -211 -111
-221 -111 -3 0 -22 -7 -42 -16 -21 -9 -52 -22 -70 -30 -18 -8 -39 -14 -47 -14
-8 0 -29 -6 -47 -14 -63 -26 -229 -63 -348 -77 -442 -50 -825 12 -1210 198
-52 26 -97 49 -100 52 -3 3 -23 15 -45 26 -22 11 -42 22 -45 25 -15 15 -71 50
-80 50 -5 0 -10 4 -10 9 0 4 -18 20 -40 35 -43 28 -62 43 -144 116 -91 81
-226 224 -226 240 0 6 -3 10 -8 10 -17 0 -232 320 -232 346 0 3 -17 42 -38 87
-91 192 -141 359 -177 588 -20 129 -20 462 0 590 24 153 61 305 91 377 8 18
14 39 14 47 0 7 6 26 14 42 8 15 19 39 24 53 23 55 94 199 128 260 37 65 175
255 200 276 8 6 14 14 14 18 0 15 239 243 293 280 31 22 57 43 57 48 0 4 6 8
14 8 8 0 16 3 18 8 5 10 66 52 77 52 5 0 11 4 13 8 7 18 303 172 330 172 8 0
23 7 34 15 10 8 27 15 36 15 10 0 32 6 50 14 69 29 221 66 368 90 120 20 475
20 599 1z"/>
<path d="M2220 4544 c-161 -27 -352 -78 -465 -124 -83 -35 -103 -44 -140 -62
-77 -38 -170 -89 -210 -116 -100 -66 -235 -166 -235 -174 0 -4 -4 -8 -9 -8
-18 0 -251 -241 -251 -259 0 -5 -4 -11 -10 -13 -5 -1 -34 -37 -64 -78 -31 -41
-60 -80 -66 -87 -5 -7 -10 -14 -10 -17 0 -2 -19 -37 -43 -78 -133 -230 -216
-471 -262 -757 -20 -127 -20 -411 1 -550 20 -137 59 -296 90 -369 8 -18 14
-41 14 -50 0 -10 4 -22 8 -27 4 -6 23 -48 42 -95 45 -110 62 -144 173 -325 7
-10 17 -25 24 -32 6 -7 21 -28 33 -48 12 -19 26 -35 31 -35 5 0 9 -7 9 -15 0
-8 4 -15 8 -15 5 0 20 -15 33 -34 23 -33 145 -166 152 -166 2 0 24 -20 49 -44
54 -52 228 -184 278 -212 19 -10 37 -22 40 -25 3 -3 17 -12 32 -20 212 -109
295 -146 383 -169 17 -4 41 -12 55 -18 107 -44 416 -92 590 -92 140 0 366 30
505 66 82 22 236 72 257 84 10 6 23 10 29 10 17 0 228 108 290 148 15 9 47 30
73 45 25 16 46 33 46 38 0 5 6 9 14 9 8 0 16 3 18 8 2 4 21 20 43 37 64 48 83
65 184 166 101 101 118 120 166 184 17 22 33 42 38 43 4 2 7 10 7 18 0 8 4 14
9 14 7 0 61 78 83 120 5 8 17 29 27 45 30 47 121 233 121 248 0 7 4 17 9 23 9
9 52 137 77 229 51 186 81 448 70 607 -16 233 -51 430 -94 538 -5 14 -16 45
-23 70 -16 56 -48 130 -102 238 -61 120 -69 136 -76 142 -3 3 -15 21 -25 40
-27 48 -154 215 -210 274 -25 26 -46 50 -46 53 0 8 -128 125 -166 152 -19 13
-34 28 -34 33 0 4 -7 8 -15 8 -8 0 -15 4 -15 9 0 24 -323 213 -453 267 -34 13
-70 29 -79 34 -10 6 -24 10 -33 10 -8 0 -29 6 -47 14 -74 31 -236 70 -369 90
-134 20 -439 20 -559 0z m367 -808 c26 -12 185 -92 353 -175 326 -163 310
-158 415 -132 28 7 75 19 105 26 30 8 82 20 115 28 33 9 94 23 135 32 41 9
100 23 130 30 30 8 75 16 98 17 l44 3 18 -75 c17 -74 37 -165 67 -305 8 -38
21 -93 29 -121 8 -28 14 -61 14 -73 0 -13 6 -46 14 -74 7 -29 21 -88 31 -132
9 -44 23 -107 30 -140 7 -33 21 -96 30 -140 9 -44 23 -105 30 -135 7 -30 20
-93 29 -140 10 -47 24 -108 32 -136 19 -67 18 -75 -9 -104 -12 -14 -40 -47
-62 -75 -22 -27 -42 -52 -45 -55 -3 -3 -46 -57 -95 -120 -49 -63 -92 -117 -95
-120 -3 -3 -18 -23 -35 -45 -16 -22 -32 -42 -35 -45 -3 -3 -24 -27 -45 -55
-22 -27 -42 -52 -45 -55 -3 -3 -30 -36 -60 -75 -30 -38 -57 -72 -60 -75 -3 -3
-30 -36 -60 -75 -30 -38 -59 -75 -65 -81 -5 -6 -55 -69 -110 -139 -55 -70
-108 -136 -117 -148 -10 -11 -18 -31 -18 -44 0 -15 -9 -27 -25 -35 -22 -10
-29 -9 -47 10 -19 18 -20 25 -10 47 8 17 19 25 37 25 14 0 25 3 25 8 0 4 10
18 23 32 12 14 56 68 96 120 41 52 77 97 80 100 4 3 19 23 36 45 16 22 32 42
35 45 3 3 30 37 60 75 30 39 57 72 60 75 3 3 30 37 60 75 30 39 57 72 60 75 3
3 24 28 45 55 22 28 42 52 46 55 3 3 18 23 34 45 17 22 32 42 35 45 4 3 19 23
35 45 17 22 32 42 35 45 3 3 30 37 60 75 30 39 57 72 60 75 15 13 80 98 80
104 0 8 -33 42 -320 316 -123 118 -268 258 -321 310 -54 52 -127 124 -163 159
l-66 63 -40 -42 c-22 -23 -40 -43 -40 -45 0 -2 -22 -27 -50 -57 -27 -29 -50
-58 -50 -64 0 -7 19 -27 43 -47 23 -19 56 -48 74 -63 17 -16 60 -54 94 -84 35
-30 71 -63 81 -72 10 -10 21 -18 24 -18 4 0 17 -11 30 -25 13 -14 26 -25 29
-25 3 0 16 -11 28 -24 12 -13 54 -49 92 -81 107 -87 108 -96 19 -139 -88 -42
-292 -137 -419 -196 -33 -15 -117 -55 -187 -89 -70 -33 -131 -61 -135 -61 -5
0 -28 -20 -51 -45 -40 -43 -74 -56 -87 -35 -3 6 -16 5 -33 -2 -38 -17 -38 -16
-16 -37 10 -10 44 -47 74 -82 30 -34 65 -73 77 -86 11 -13 35 -41 51 -61 17
-20 47 -55 66 -77 36 -40 46 -65 25 -65 -6 0 -65 27 -132 59 -67 32 -158 75
-202 96 -44 20 -109 51 -144 68 -77 38 -114 39 -183 5 -29 -14 -93 -45 -143
-68 -49 -23 -140 -67 -202 -96 -109 -53 -143 -63 -143 -44 0 5 10 19 23 32 12
13 42 47 67 77 25 30 56 66 70 81 70 74 150 169 150 178 0 14 -38 22 -71 15
-47 -9 -73 4 -98 47 -12 22 -27 40 -34 40 -6 0 -65 26 -131 59 -124 60 -191
92 -331 156 -88 40 -195 91 -292 139 -35 16 -63 34 -63 39 0 10 8 18 105 99
36 29 65 56 65 61 0 4 5 7 10 7 6 0 21 10 33 23 12 13 35 32 50 44 26 20 135
114 162 140 6 6 41 35 76 64 35 29 75 63 88 76 l23 23 -53 62 c-81 94 -133
148 -142 148 -4 0 -42 -35 -85 -77 -42 -43 -214 -211 -382 -373 -168 -162
-326 -316 -352 -341 -27 -26 -48 -53 -48 -60 0 -8 10 -25 23 -39 13 -14 56
-68 97 -120 41 -52 77 -97 80 -100 3 -3 55 -68 115 -145 59 -77 111 -142 114
-145 4 -3 31 -36 61 -75 30 -38 60 -75 66 -82 7 -7 34 -42 60 -78 26 -36 51
-65 56 -65 4 0 8 -7 8 -15 0 -8 4 -15 8 -15 5 0 22 -19 39 -43 17 -23 41 -53
53 -67 12 -14 43 -53 68 -87 25 -35 49 -63 54 -63 4 0 8 -4 8 -10 0 -14 38
-50 53 -50 33 0 50 -53 25 -78 -7 -7 -21 -12 -33 -12 -30 0 -45 19 -45 57 0
18 -4 33 -8 33 -5 0 -30 29 -56 65 -26 36 -54 72 -62 80 -8 7 -14 16 -14 19 0
3 -8 14 -17 25 -39 41 -73 84 -73 92 0 5 -4 9 -8 9 -5 0 -28 27 -52 60 -24 33
-47 60 -52 60 -4 0 -8 6 -8 14 0 8 -3 16 -8 18 -4 1 -32 35 -62 73 -30 39 -57
72 -60 75 -3 3 -23 28 -45 55 -21 28 -42 52 -45 55 -3 3 -32 41 -65 84 -33 43
-64 84 -70 90 -6 6 -35 42 -65 81 -65 82 -62 79 -140 175 -47 58 -60 81 -57
100 3 14 15 68 27 120 12 52 26 113 30 135 4 22 12 60 18 85 6 25 18 79 27
120 9 41 22 102 30 135 7 33 21 96 30 140 10 44 23 105 30 135 7 30 20 91 30
135 26 121 42 193 58 265 9 36 24 102 34 147 18 81 19 83 47 83 16 0 52 -6 80
-14 28 -8 87 -22 131 -31 44 -9 105 -23 135 -30 30 -8 89 -21 130 -30 41 -9
98 -23 126 -31 64 -18 109 -18 142 0 15 8 83 41 152 74 308 148 487 234 510
247 32 19 30 19 87 -9z"/>
<path d="M2312 3524 c-105 -102 -190 -190 -186 -195 3 -5 17 -9 31 -9 15 0 49
-6 77 -14 28 -8 78 -20 111 -26 33 -7 88 -19 122 -27 56 -14 68 -14 120 -1 32
9 85 21 118 27 33 7 83 19 111 27 28 8 60 14 71 14 11 0 23 3 26 7 4 3 -55 66
-131 140 -75 73 -163 158 -194 188 -31 30 -62 55 -70 55 -7 0 -100 -84 -206
-186z"/>
<path d="M2742 3559 c229 -223 217 -213 252 -211 17 2 56 9 86 17 30 8 68 17
85 20 28 6 25 9 -62 53 -304 154 -469 238 -478 241 -5 2 47 -52 117 -120z"/>
<path d="M2255 3586 c-60 -29 -174 -85 -253 -123 -78 -38 -139 -73 -135 -76 3
-4 19 -7 33 -7 15 0 45 -6 67 -14 22 -8 56 -16 75 -18 34 -3 43 5 187 145 83
81 147 147 143 147 -4 0 -56 -24 -117 -54z"/>
<path d="M1076 3453 c-10 -43 -25 -109 -33 -148 -8 -38 -21 -95 -28 -125 -7
-30 -21 -91 -30 -135 -37 -174 -48 -222 -60 -275 -7 -30 -21 -91 -30 -135 -9
-44 -23 -103 -31 -131 -8 -28 -14 -61 -14 -74 0 -13 -6 -46 -14 -74 -8 -28
-22 -87 -31 -131 -9 -44 -21 -95 -25 -113 -9 -34 -8 -33 58 29 59 55 499 483
721 700 l78 77 -31 36 c-17 19 -47 54 -66 77 -19 23 -42 49 -51 58 -8 9 -40
45 -70 81 -30 36 -63 74 -74 85 -11 11 -45 50 -75 85 -30 36 -65 75 -77 87
-13 12 -23 24 -23 27 0 6 -66 76 -72 76 -2 0 -12 -35 -22 -77z"/>
<path d="M3860 3516 c-25 -7 -81 -21 -125 -31 -44 -9 -93 -22 -110 -27 -16 -5
-50 -13 -75 -17 -25 -5 -67 -14 -95 -21 -27 -7 -69 -17 -92 -22 -24 -6 -43
-14 -43 -19 0 -5 54 -35 120 -66 66 -32 120 -63 120 -69 0 -6 -10 -22 -22 -36
-222 -245 -204 -218 -169 -252 l28 -27 49 57 c27 31 61 70 77 86 15 16 27 31
27 34 0 3 10 15 23 27 13 12 54 58 92 102 38 44 72 82 76 85 3 3 39 43 78 89
40 46 79 90 86 98 27 27 22 28 -45 9z"/>
<path d="M3925 3474 c-22 -26 -47 -54 -55 -63 -9 -9 -45 -50 -80 -91 -36 -41
-68 -77 -71 -80 -3 -3 -39 -43 -78 -89 -40 -46 -77 -89 -84 -96 -7 -6 -28 -31
-47 -54 -19 -23 -45 -53 -57 -67 -13 -14 -23 -28 -23 -32 0 -4 77 -82 170
-172 94 -91 253 -245 353 -343 100 -98 212 -204 248 -237 78 -71 77 -86 14
195 -8 33 -21 96 -30 140 -9 44 -23 103 -31 131 -8 28 -14 61 -14 73 0 13 -6
46 -14 74 -7 29 -21 88 -31 132 -9 44 -23 107 -30 140 -7 33 -21 96 -30 140
-9 44 -23 105 -30 135 -12 50 -30 146 -37 193 -2 14 -12 8 -43 -29z"/>
<path d="M1196 3488 c11 -18 104 -129 131 -155 13 -12 23 -24 23 -27 0 -2 12
-17 28 -33 15 -16 47 -52 72 -82 25 -29 54 -63 65 -75 11 -12 49 -56 84 -98
62 -74 64 -75 82 -57 11 11 19 22 19 25 0 3 -47 58 -105 122 -58 64 -105 125
-105 135 0 10 11 22 26 27 39 15 214 101 214 105 0 5 -88 29 -185 50 -84 18
-148 33 -252 59 -77 20 -107 21 -97 4z"/>
<path d="M1760 3344 c-53 -25 -125 -58 -160 -74 -77 -34 -77 -30 -8 -106 108
-120 137 -145 153 -136 8 4 78 71 156 147 121 120 137 140 117 143 -12 1 -41
7 -63 13 -120 34 -148 36 -195 13z"/>
<path d="M3180 3355 c-30 -8 -82 -19 -115 -26 -33 -7 -62 -14 -64 -16 -5 -3
297 -297 308 -300 6 -1 163 171 188 207 10 15 6 20 -35 40 -26 12 -87 42 -136
66 -49 24 -90 43 -90 43 -1 -1 -26 -7 -56 -14z"/>
<path d="M1929 3151 c-83 -83 -155 -151 -160 -151 -19 0 -8 -20 34 -62 23 -24
68 -72 99 -106 31 -34 61 -62 65 -62 4 0 25 15 45 33 58 51 79 69 143 122 78
65 114 96 134 116 9 8 44 39 78 67 34 28 75 62 90 76 l27 25 -30 11 c-16 6
-42 14 -59 16 -16 3 -57 11 -90 19 -62 14 -136 29 -192 40 -31 6 -39 0 -184
-144z"/>
<path d="M2835 3275 c-200 -43 -248 -55 -252 -58 -4 -4 95 -97 103 -97 3 0 17
-13 32 -28 15 -16 56 -53 92 -82 36 -29 75 -64 87 -76 12 -13 26 -24 32 -24 5
0 11 -4 13 -9 2 -4 35 -36 74 -69 l71 -61 87 91 c47 50 86 94 86 99 0 4 6 10
13 13 11 4 -309 327 -323 325 -3 0 -54 -11 -115 -24z"/>
<path d="M2459 3137 c-41 -34 -84 -72 -96 -84 -12 -13 -27 -23 -33 -23 -5 0
-10 -3 -10 -7 0 -5 -30 -33 -67 -63 -37 -30 -80 -67 -95 -82 -16 -16 -31 -28
-34 -28 -3 0 -23 -16 -44 -36 -22 -20 -49 -43 -60 -51 -11 -8 -20 -20 -20 -27
0 -6 25 -38 55 -70 30 -31 55 -59 55 -61 0 -2 21 -26 48 -53 26 -26 91 -95
144 -153 53 -57 125 -135 160 -172 l63 -68 88 92 c48 51 87 93 87 94 0 2 17
20 38 42 73 76 202 216 202 219 0 2 15 19 33 37 86 91 91 101 60 127 -10 9
-47 40 -83 69 -36 30 -75 65 -87 77 -12 13 -26 24 -32 24 -5 0 -11 4 -13 9 -3
7 -34 35 -192 171 -16 14 -36 32 -45 40 -45 43 -43 43 -122 -23z"/>
<path d="M3228 2866 c-48 -50 -92 -97 -99 -104 -11 -10 -6 -19 21 -46 l34 -33
59 71 c33 39 69 80 81 91 49 45 50 52 19 83 l-29 29 -86 -91z"/>
<path d="M1706 2934 c-12 -12 -13 -20 -6 -35 6 -10 15 -19 20 -19 6 0 10 -4
10 -9 0 -5 12 -22 28 -38 15 -16 48 -53 75 -82 45 -50 48 -53 69 -39 12 8 23
19 25 25 5 14 -180 213 -197 213 -5 0 -16 -7 -24 -16z"/>
<path d="M1944 2695 c-4 -8 -12 -15 -20 -15 -14 0 -20 -26 -6 -32 4 -1 32 -32
62 -68 63 -76 88 -105 113 -131 9 -10 17 -21 17 -24 0 -2 15 -19 33 -38 43
-45 117 -128 117 -132 0 -2 16 -21 36 -42 20 -21 57 -64 83 -95 25 -32 51 -58
56 -57 6 0 23 16 39 35 28 34 28 35 10 53 -10 11 -64 68 -119 127 -55 60 -121
130 -147 157 -27 26 -48 50 -48 52 0 2 -21 26 -47 53 -27 27 -73 76 -103 110
-58 65 -67 71 -76 47z"/>
<path d="M3029 2648 c-30 -35 -75 -84 -101 -111 -27 -26 -48 -49 -48 -51 0 -4
-126 -140 -192 -208 -27 -27 -48 -51 -48 -53 0 -2 -20 -24 -45 -50 l-45 -45
37 -41 38 -40 40 44 c47 52 66 74 159 182 38 44 76 87 85 95 9 8 52 58 96 110
43 52 91 107 107 122 15 15 28 32 28 37 0 6 6 11 13 11 6 0 -2 14 -20 30 -18
17 -36 30 -41 30 -5 0 -34 -28 -63 -62z"/>
<path d="M1800 2573 c-36 -30 -66 -60 -68 -64 -2 -5 -8 -9 -13 -9 -6 0 -20
-10 -32 -23 -12 -12 -49 -44 -82 -72 -33 -27 -67 -56 -76 -64 -21 -21 -61 -55
-134 -115 -67 -55 -99 -86 -94 -90 9 -7 344 -166 434 -206 67 -30 204 -94 289
-136 l70 -34 19 21 c15 16 28 20 53 16 26 -4 36 -1 48 16 8 12 55 64 105 116
l91 93 -19 25 c-23 29 -119 139 -142 162 -8 9 -38 44 -66 78 -28 34 -64 75
-80 91 -15 16 -44 48 -63 72 -32 41 -67 81 -129 153 -14 15 -29 27 -35 27 -6
0 -40 -26 -76 -57z"/>
<path d="M3148 2589 c-21 -23 -38 -43 -38 -45 0 -3 -10 -15 -23 -27 -12 -12
-47 -51 -77 -87 -30 -36 -65 -75 -77 -87 -13 -12 -23 -25 -23 -28 0 -3 -13
-18 -28 -33 -15 -15 -52 -56 -82 -92 -30 -36 -65 -75 -77 -87 -13 -12 -23 -25
-23 -28 0 -3 -12 -17 -26 -31 l-27 -24 57 -57 c31 -31 56 -57 56 -59 0 -2 23
-26 50 -54 33 -32 59 -50 75 -50 13 0 33 -10 44 -21 l20 -22 73 35 c99 48 232
111 293 138 49 21 87 39 330 156 66 31 114 59 106 62 -8 3 -24 14 -35 26 -12
12 -50 45 -86 75 -36 30 -72 62 -81 70 -9 9 -29 27 -45 40 -25 21 -77 67 -202
176 -13 11 -43 37 -65 57 -23 21 -44 38 -47 37 -3 0 -22 -18 -42 -40z"/>
<path d="M2500 2072 c-42 -50 -42 -46 -2 -90 l37 -42 33 40 33 40 -34 35 c-39
40 -47 42 -67 17z"/>
<path d="M2377 1936 c-31 -32 -57 -61 -57 -63 0 -1 -19 -22 -42 -44 -38 -37
-43 -46 -44 -90 -1 -45 1 -49 30 -59 34 -12 28 -17 149 123 37 44 75 86 84 95
14 14 13 17 -6 33 -11 9 -21 20 -21 23 0 3 -8 14 -18 24 -17 17 -20 15 -75
-42z"/>
<path d="M2590 1951 l-36 -39 46 -50 c74 -81 144 -163 153 -178 5 -9 14 -10
35 -3 24 8 27 15 29 58 l2 50 -97 101 -97 101 -35 -40z"/>
<path d="M2504 1850 c-16 -18 -36 -39 -44 -49 -9 -9 -42 -46 -73 -82 l-58 -67
93 -46 c51 -25 98 -46 103 -46 6 0 54 22 108 49 l99 48 -31 32 c-17 17 -31 33
-31 35 0 2 -20 26 -44 52 -24 27 -55 62 -68 78 l-24 28 -30 -32z"/>
<path d="M2128 1776 c-25 -19 -23 -22 25 -45 49 -24 77 -27 77 -8 0 21 -17 40
-24 28 -4 -6 -14 -11 -23 -11 -11 0 -14 6 -9 25 5 20 3 25 -11 25 -10 0 -26
-7 -35 -14z"/>
<path d="M2878 1778 c7 -7 12 -18 12 -25 0 -17 -37 -17 -43 0 -4 9 -8 8 -16
-3 -15 -21 -14 -40 3 -40 7 0 35 10 61 21 l48 21 -24 19 c-28 21 -61 27 -41 7z"/>
<path d="M2110 1697 c0 -23 46 -42 72 -29 22 10 22 11 2 11 -11 1 -29 8 -40
16 -24 18 -34 19 -34 2z"/>
<path d="M2897 1693 c-16 -8 -26 -17 -24 -19 9 -9 56 8 61 22 7 17 0 16 -37
-3z"/>
<path d="M2290 1613 c0 -5 -15 -24 -33 -44 -17 -19 -57 -64 -87 -98 -30 -35
-62 -71 -70 -80 -9 -9 -22 -24 -29 -34 -13 -16 -11 -16 20 -3 19 8 59 27 89
41 78 37 165 78 240 113 l64 31 -29 12 c-17 6 -56 25 -88 40 -59 30 -77 35
-77 22z"/>
<path d="M2680 1591 c-30 -16 -68 -34 -85 -40 l-29 -12 59 -29 c33 -16 101
-47 150 -70 50 -23 118 -56 153 -72 34 -17 66 -28 69 -24 4 4 3 10 -3 14 -6 4
-30 30 -54 57 -100 117 -183 205 -194 204 -6 0 -36 -13 -66 -28z"/>
</g>
</svg>
