<?xml version="1.0" standalone="no"?>
<!DOCTYPE svg PUBLIC "-//W3C//DTD SVG 20010904//EN"
 "http://www.w3.org/TR/2001/REC-SVG-20010904/DTD/svg10.dtd">
<svg version="1.0" xmlns="http://www.w3.org/2000/svg"
 width="256.000000pt" height="256.000000pt" viewBox="0 0 256.000000 256.000000"
 preserveAspectRatio="xMidYMid meet">
<metadata>
Created by potrace 1.14, written by Peter Selinger 2001-2017
</metadata>
<g transform="translate(0.000000,256.000000) scale(0.100000,-0.100000)"
fill="#000000" stroke="none">
<path d="M0 1280 l0 -1280 1280 0 1280 0 0 1280 0 1280 -1280 0 -1280 0 0
-1280z m2275 1135 c25 -25 36 -95 15 -95 -5 0 -10 -12 -10 -26 0 -29 -21 -54
-44 -54 -9 0 -16 -4 -16 -10 0 -5 -9 -10 -20 -10 -11 0 -20 -4 -20 -10 0 -5
-9 -10 -20 -10 -13 0 -20 -7 -20 -20 0 -13 -7 -20 -18 -20 -10 0 -24 -9 -32
-20 -8 -11 -22 -20 -32 -20 -10 0 -18 -4 -18 -10 0 -5 -9 -10 -20 -10 -11 0
-20 -4 -20 -10 0 -5 -9 -10 -20 -10 -11 0 -20 -4 -20 -10 0 -5 -7 -10 -16 -10
-15 0 -44 -23 -44 -34 0 -3 23 -6 50 -6 28 0 50 -4 50 -10 0 -6 28 -10 65 -10
64 0 66 -1 110 -45 30 -29 45 -53 45 -70 0 -14 5 -25 10 -25 6 0 10 -9 10 -20
0 -11 5 -20 10 -20 6 0 10 -13 10 -30 0 -16 5 -30 10 -30 6 0 10 -9 10 -20 0
-11 5 -20 10 -20 15 0 12 -70 -4 -86 -8 -8 -22 -14 -30 -14 -13 0 -16 -14 -16
-80 0 -73 2 -80 20 -80 13 0 20 -7 20 -20 0 -11 5 -20 10 -20 6 0 10 -9 10
-20 0 -11 5 -20 10 -20 6 0 10 -40 10 -100 0 -60 -4 -100 -10 -100 -5 0 -10
-13 -10 -30 0 -23 -4 -30 -20 -30 -11 0 -20 -4 -20 -10 0 -5 -7 -10 -15 -10
-20 0 -85 65 -85 85 0 8 -4 15 -10 15 -6 0 -10 29 -10 66 0 45 -5 70 -15 81
-14 13 -18 11 -44 -16 -16 -17 -36 -31 -45 -31 -9 0 -16 -4 -16 -10 0 -15 -70
-12 -86 4 -17 17 -20 166 -4 166 6 0 10 9 10 20 0 13 7 20 20 20 13 0 20 7 20
20 0 13 7 20 20 20 13 0 20 7 20 18 0 10 -9 24 -20 32 -11 8 -20 22 -20 32 0
10 -4 18 -10 18 -5 0 -10 9 -10 20 0 11 -4 20 -10 20 -5 0 -10 8 -10 18 0 10
-9 24 -20 32 -11 8 -20 20 -20 27 0 16 -125 143 -141 143 -6 0 -24 14 -39 30
-15 17 -35 30 -44 30 -9 0 -16 5 -16 10 0 6 -9 10 -20 10 -11 0 -20 5 -20 10
0 6 -9 10 -20 10 -11 0 -20 5 -20 10 0 6 -9 10 -20 10 -11 0 -20 5 -20 10 0 6
-18 10 -40 10 -22 0 -40 5 -40 10 0 6 -18 10 -40 10 -22 0 -40 5 -40 10 0 6
-47 10 -120 10 -103 0 -120 2 -120 16 0 9 -13 29 -30 44 -16 15 -30 33 -30 40
0 6 -18 29 -40 50 -22 21 -40 48 -40 60 0 25 22 50 44 50 9 0 16 5 16 10 0 6
23 10 50 10 28 0 50 -4 50 -10 0 -5 11 -10 25 -10 18 0 49 -23 110 -85 47 -47
85 -92 85 -100 0 -8 5 -15 10 -15 6 0 10 -9 10 -20 0 -16 7 -20 30 -20 17 0
30 -4 30 -10 0 -5 9 -10 20 -10 11 0 20 -4 20 -10 0 -5 14 -10 30 -10 17 0 30
5 30 10 0 6 7 10 16 10 9 0 29 14 44 30 15 17 33 30 40 30 7 0 25 14 40 30 15
17 33 30 40 30 7 0 25 14 40 30 15 17 34 30 42 30 7 0 20 9 28 20 8 11 22 20
32 20 10 0 18 5 18 10 0 6 9 10 20 10 11 0 20 5 20 10 0 6 8 10 18 10 10 0 24
9 32 20 8 11 21 20 30 20 9 0 22 9 30 20 8 12 26 20 42 20 15 0 28 5 28 10 0
6 28 10 65 10 57 0 69 -3 90 -25z m-1115 -385 c0 -5 -4 -10 -10 -10 -5 0 -10
5 -10 10 0 6 5 10 10 10 6 0 10 -4 10 -10z m-97 -22 c4 -10 8 -9 16 2 5 8 13
11 17 8 3 -4 -1 -15 -11 -24 -14 -14 -18 -15 -25 -3 -7 11 -13 8 -30 -11 -17
-20 -23 -22 -30 -10 -7 12 -13 10 -31 -10 -14 -17 -23 -21 -26 -12 -7 19 -23
14 -23 -8 0 -13 -7 -20 -20 -20 -22 0 -27 -16 -7 -23 6 -2 8 -8 4 -13 -4 -5
-12 -2 -18 6 -8 13 -10 13 -20 0 -8 -11 -12 -12 -16 -2 -8 19 -23 14 -23 -8 0
-13 -7 -20 -18 -20 -10 0 -24 -9 -32 -20 -8 -11 -20 -20 -28 -20 -15 0 -82
-65 -82 -80 0 -15 -50 -64 -57 -56 -4 3 4 14 15 25 12 10 22 30 22 45 0 17 5
26 16 26 20 0 44 24 44 44 0 9 8 16 20 16 11 0 20 5 20 10 0 6 7 10 16 10 8 0
34 19 56 42 30 31 42 38 48 28 7 -11 16 -6 40 20 25 27 33 31 40 20 7 -12 13
-10 30 10 18 20 23 22 30 10 8 -13 12 -11 27 7 21 26 29 28 36 11z m-123 -118
c0 -5 -4 -10 -10 -10 -5 0 -10 5 -10 10 0 6 5 10 10 10 6 0 10 -4 10 -10z
m-140 -80 c0 -5 -4 -10 -10 -10 -5 0 -10 5 -10 10 0 6 5 10 10 10 6 0 10 -4
10 -10z m-60 -40 c0 -5 -4 -10 -10 -10 -5 0 -10 5 -10 10 0 6 5 10 10 10 6 0
10 -4 10 -10z m60 0 c0 -5 -4 -10 -10 -10 -5 0 -10 5 -10 10 0 6 5 10 10 10 6
0 10 -4 10 -10z m1180 -740 c0 -5 -4 -10 -10 -10 -5 0 -10 5 -10 10 0 6 5 10
10 10 6 0 10 -4 10 -10z m-20 -40 c0 -5 -4 -10 -10 -10 -5 0 -10 5 -10 10 0 6
5 10 10 10 6 0 10 -4 10 -10z m-20 -40 c0 -5 -4 -10 -10 -10 -5 0 -10 5 -10
10 0 6 5 10 10 10 6 0 10 -4 10 -10z m-20 -35 c0 -11 -51 -57 -57 -52 -3 3 6
17 18 31 23 24 39 32 39 21z m-60 -85 c0 -5 -4 -10 -10 -10 -5 0 -10 5 -10 10
0 6 5 10 10 10 6 0 10 -4 10 -10z m-20 -35 c0 -11 -69 -75 -81 -75 -6 0 -24
-13 -39 -30 -15 -16 -35 -30 -44 -30 -9 0 -16 -4 -16 -10 0 -5 -9 -10 -20 -10
-11 0 -20 -4 -20 -10 0 -5 -9 -10 -20 -10 -11 0 -20 -4 -20 -10 0 -5 -9 -10
-20 -10 -11 0 -20 -4 -20 -10 0 -5 -18 -10 -40 -10 -22 0 -40 -4 -40 -10 0 -5
-22 -10 -50 -10 -27 0 -50 -4 -50 -10 0 -6 -47 -10 -120 -10 -73 0 -120 4
-120 10 0 6 47 10 120 10 73 0 120 4 120 10 0 6 23 10 50 10 28 0 50 5 50 10
0 6 18 10 40 10 22 0 40 5 40 10 0 6 9 10 20 10 11 0 20 5 20 10 0 6 9 10 20
10 11 0 20 5 20 10 0 6 9 10 20 10 11 0 20 5 20 10 0 6 7 10 16 10 9 0 29 14
44 30 15 17 34 30 42 30 7 0 24 14 38 30 23 27 40 38 40 25z m-197 -227 c4
-10 8 -9 17 2 9 11 13 12 17 3 2 -7 16 -13 30 -13 15 0 36 -12 53 -30 17 -18
38 -30 54 -30 14 0 26 -4 26 -10 0 -5 -13 -10 -30 -10 -16 0 -30 -4 -30 -10 0
-5 -8 -10 -18 -10 -10 0 -24 -9 -32 -20 -14 -19 -26 -20 -272 -20 -165 0 -258
4 -258 10 0 6 -37 10 -90 10 -53 0 -90 4 -90 10 0 6 -22 10 -50 10 -27 0 -50
5 -50 10 0 6 -13 10 -30 10 -23 0 -30 4 -30 20 0 16 7 20 30 20 17 0 30 5 30
10 0 6 27 10 60 10 33 0 60 -4 60 -10 0 -5 18 -10 40 -10 22 0 40 -4 40 -10 0
-6 50 -10 130 -10 80 0 130 4 130 10 0 6 18 10 40 10 22 0 40 5 40 10 0 6 18
10 40 10 22 0 40 5 40 10 0 6 9 10 20 10 11 0 20 5 20 10 0 15 57 12 63 -2z
m157 -18 c0 -5 -9 -10 -20 -10 -11 0 -20 5 -20 10 0 6 9 10 20 10 11 0 20 -4
20 -10z m100 -30 c0 -24 -6 -25 -26 -6 -19 20 -18 26 6 26 13 0 20 -7 20 -20z
m0 -50 c0 -5 -9 -10 -20 -10 -11 0 -20 5 -20 10 0 6 9 10 20 10 11 0 20 -4 20
-10z"/>
<path d="M840 1910 c0 -5 5 -10 10 -10 6 0 10 5 10 10 0 6 -4 10 -10 10 -5 0
-10 -4 -10 -10z"/>
<path d="M1760 490 c0 -5 5 -10 10 -10 6 0 10 5 10 10 0 6 -4 10 -10 10 -5 0
-10 -4 -10 -10z"/>
</g>
</svg>
